REM DIRINDEX 1\2,1\3,1\4,1\6,1\5\7,1\5\8
REM DIRNAME folder01,folder02,folder03,folder04,folder05,folder06,folder07,folder08
TITLE ""
FILE "DB4500_5th_1A_17.mp3" MP3
  TRACK 01 AUDIO
    TITLE "2:cjc114_0475"
    INDEX 01 00:00:00
  TRACK 02 AUDIO
    TITLE "0:"
    INDEX 01 00:01:36
  TRACK 03 AUDIO
    TITLE "3:cjc114_0476"
    INDEX 01 00:01:62
  TRACK 04 AUDIO
    TITLE "0:"
    INDEX 01 00:03:12
  TRACK 05 AUDIO
    TITLE "4:cjc114_0477"
    INDEX 01 00:03:39
  TRACK 06 AUDIO
    TITLE "0:"
    INDEX 01 00:06:37
  TRACK 07 AUDIO
    TITLE "2:cjc114_0478"
    INDEX 01 00:07:15
  TRACK 08 AUDIO
    TITLE "0:"
    INDEX 01 00:08:34
  TRACK 09 AUDIO
    TITLE "3:cjc114_0479"
    INDEX 01 00:08:60
  TRACK 10 AUDIO
    TITLE "0:"
    INDEX 01 00:09:53
  TRACK 11 AUDIO
    TITLE "4:cjc114_0480"
    INDEX 01 00:10:06
  TRACK 12 AUDIO
    TITLE "0:"
    INDEX 01 00:12:73
  TRACK 13 AUDIO
    TITLE "2:cjc114_0481"
    INDEX 01 00:13:49
  TRACK 14 AUDIO
    TITLE "0:"
    INDEX 01 00:14:49
  TRACK 15 AUDIO
    TITLE "3:cjc114_0482"
    INDEX 01 00:15:03
  TRACK 16 AUDIO
    TITLE "0:"
    INDEX 01 00:16:12
  TRACK 17 AUDIO
    TITLE "4:cjc114_0483"
    INDEX 01 00:16:40
  TRACK 18 AUDIO
    TITLE "0:"
    INDEX 01 00:18:68
  TRACK 19 AUDIO
    TITLE "2:cjc114_0484"
    INDEX 01 00:19:44
  TRACK 20 AUDIO
    TITLE "0:"
    INDEX 01 00:20:47
  TRACK 21 AUDIO
    TITLE "3:cjc114_0485"
    INDEX 01 00:20:73
  TRACK 22 AUDIO
    TITLE "0:"
    INDEX 01 00:21:60
  TRACK 23 AUDIO
    TITLE "4:cjc114_0486"
    INDEX 01 00:22:15
  TRACK 24 AUDIO
    TITLE "0:"
    INDEX 01 00:24:61
  TRACK 25 AUDIO
    TITLE "2:cjc114_0487"
    INDEX 01 00:25:37
  TRACK 26 AUDIO
    TITLE "0:"
    INDEX 01 00:26:56
  TRACK 27 AUDIO
    TITLE "3:cjc114_0488"
    INDEX 01 00:27:08
  TRACK 28 AUDIO
    TITLE "0:"
    INDEX 01 00:28:12
  TRACK 29 AUDIO
    TITLE "4:cjc114_0489"
    INDEX 01 00:28:39
  TRACK 30 AUDIO
    TITLE "0:"
    INDEX 01 00:30:40
  TRACK 31 AUDIO
    TITLE "2:cjc114_0490"
    INDEX 01 00:31:16
  TRACK 32 AUDIO
    TITLE "0:"
    INDEX 01 00:32:11
  TRACK 33 AUDIO
    TITLE "3:cjc114_0491"
    INDEX 01 00:32:41
  TRACK 34 AUDIO
    TITLE "0:"
    INDEX 01 00:33:32
  TRACK 35 AUDIO
    TITLE "4:cjc114_0492"
    INDEX 01 00:33:60
  TRACK 36 AUDIO
    TITLE "0:"
    INDEX 01 00:36:33
  TRACK 37 AUDIO
    TITLE "4:cjc114_0493"
    INDEX 01 00:37:14
  TRACK 38 AUDIO
    TITLE "0:"
    INDEX 01 00:39:56
  TRACK 39 AUDIO
    TITLE "2:cjc114_0494"
    INDEX 01 00:40:38
  TRACK 40 AUDIO
    TITLE "0:"
    INDEX 01 00:41:40
  TRACK 41 AUDIO
    TITLE "3:cjc114_0495"
    INDEX 01 00:41:63
  TRACK 42 AUDIO
    TITLE "0:"
    INDEX 01 00:44:52
  TRACK 43 AUDIO
    TITLE "4:cjc114_0496"
    INDEX 01 00:44:73
  TRACK 44 AUDIO
    TITLE "0:"
    INDEX 01 00:49:41
  TRACK 45 AUDIO
    TITLE "2:cjc114_0497"
    INDEX 01 00:50:13
  TRACK 46 AUDIO
    TITLE "0:"
    INDEX 01 00:51:26
  TRACK 47 AUDIO
    TITLE "3:cjc114_0498"
    INDEX 01 00:51:48
  TRACK 48 AUDIO
    TITLE "0:"
    INDEX 01 00:54:38
  TRACK 49 AUDIO
    TITLE "4:cjc114_0499"
    INDEX 01 00:54:60
  TRACK 50 AUDIO
    TITLE "0:"
    INDEX 01 00:57:54
  TRACK 51 AUDIO
    TITLE "2:cjc114_0500"
    INDEX 01 00:58:26
  TRACK 52 AUDIO
    TITLE "0:"
    INDEX 01 00:59:41
  TRACK 53 AUDIO
    TITLE "3:cjc114_0501"
    INDEX 01 00:59:63
  TRACK 54 AUDIO
    TITLE "0:"
    INDEX 01 01:02:30
  TRACK 55 AUDIO
    TITLE "4:cjc114_0502"
    INDEX 01 01:02:54
  TRACK 56 AUDIO
    TITLE "0:"
    INDEX 01 01:05:54
  TRACK 57 AUDIO
    TITLE "2:cjc114_0503"
    INDEX 01 01:06:26
  TRACK 58 AUDIO
    TITLE "0:"
    INDEX 01 01:07:53
  TRACK 59 AUDIO
    TITLE "3:cjc114_0504"
    INDEX 01 01:08:05
  TRACK 60 AUDIO
    TITLE "0:"
    INDEX 01 01:10:53
  TRACK 61 AUDIO
    TITLE "4:cjc114_0505"
    INDEX 01 01:11:02
  TRACK 62 AUDIO
    TITLE "0:"
    INDEX 01 01:14:39
  TRACK 63 AUDIO
    TITLE "2:cjc114_0506"
    INDEX 01 01:15:13
  TRACK 64 AUDIO
    TITLE "0:"
    INDEX 01 01:16:28
  TRACK 65 AUDIO
    TITLE "3:cjc114_0507"
    INDEX 01 01:16:52
  TRACK 66 AUDIO
    TITLE "0:"
    INDEX 01 01:19:13
  TRACK 67 AUDIO
    TITLE "4:cjc114_0508"
    INDEX 01 01:19:38
  TRACK 68 AUDIO
    TITLE "0:"
    INDEX 01 01:22:23
  TRACK 69 AUDIO
    TITLE "2:cjc114_0509"
    INDEX 01 01:22:72
  TRACK 70 AUDIO
    TITLE "0:"
    INDEX 01 01:24:12
  TRACK 71 AUDIO
    TITLE "3:cjc114_0510"
    INDEX 01 01:24:37
  TRACK 72 AUDIO
    TITLE "0:"
    INDEX 01 01:27:08
  TRACK 73 AUDIO
    TITLE "4:cjc114_0511"
    INDEX 01 01:27:32
  TRACK 74 AUDIO
    TITLE "0:"
    INDEX 01 01:30:05
